<svg width="1200" height="460" viewBox="0 0 1200 460" fill="none" xmlns="http://www.w3.org/2000/svg" role="img" aria-label="Backend architecture illustration">
  <rect width="1200" height="460" rx="24" fill="#0D1117" />
  <rect x="70" y="120" width="220" height="100" rx="14" fill="#111827" stroke="#58A6FF" />
  <text x="102" y="178" fill="#C9D1D9" font-family="'Segoe UI', Arial, sans-serif" font-size="24">Client Apps</text>

  <rect x="360" y="70" width="220" height="100" rx="14" fill="#111827" stroke="#7C3AED" />
  <text x="414" y="128" fill="#C9D1D9" font-family="'Segoe UI', Arial, sans-serif" font-size="24">API Layer</text>

  <rect x="360" y="240" width="220" height="100" rx="14" fill="#111827" stroke="#22D3EE" />
  <text x="418" y="298" fill="#C9D1D9" font-family="'Segoe UI', Arial, sans-serif" font-size="24">Security</text>

  <rect x="650" y="70" width="220" height="100" rx="14" fill="#111827" stroke="#58A6FF" />
  <text x="685" y="128" fill="#C9D1D9" font-family="'Segoe UI', Arial, sans-serif" font-size="24">Services</text>

  <rect x="650" y="240" width="220" height="100" rx="14" fill="#111827" stroke="#7C3AED" />
  <text x="700" y="298" fill="#C9D1D9" font-family="'Segoe UI', Arial, sans-serif" font-size="24">Workers</text>

  <rect x="940" y="120" width="190" height="100" rx="14" fill="#111827" stroke="#22D3EE" />
  <text x="967" y="178" fill="#C9D1D9" font-family="'Segoe UI', Arial, sans-serif" font-size="24">Data Layer</text>

  <path d="M290 170H360" stroke="#58A6FF" stroke-width="3" />
  <path d="M580 120H650" stroke="#7C3AED" stroke-width="3" />
  <path d="M580 290H650" stroke="#22D3EE" stroke-width="3" />
  <path d="M870 170H940" stroke="#58A6FF" stroke-width="3" />
  <path d="M470 170V240" stroke="#7C3AED" stroke-width="2" stroke-dasharray="7 7" />
  <path d="M760 170V240" stroke="#22D3EE" stroke-width="2" stroke-dasharray="7 7" />
</svg>
